<?xml version="1.0" encoding="utf-8"?>
<!-- Generator: Adobe Illustrator 21.0.2, SVG Export Plug-In . SVG Version: 6.00 Build 0)  -->
<svg version="1.1" id="Layer_1" xmlns="http://www.w3.org/2000/svg" xmlns:xlink="http://www.w3.org/1999/xlink" x="0px" y="0px"
	 width="122.8px" height="26.2px" viewBox="0 0 122.8 26.2" style="enable-background:new 0 0 122.8 26.2;" xml:space="preserve">
<style type="text/css">
	.st0{fill:#231F20;}
	.st1{fill:#929497;}
	.st2{fill:#626366;}
</style>
<g>
	<path class="st0" d="M50.8,14.9L42.5,0.6c-0.2-0.3-0.6-0.3-0.7,0l-8.3,14.3c-0.2,0.3,0,0.6,0.4,0.6h16.5
		C50.7,15.5,50.9,15.2,50.8,14.9 M36.6,13.5l5.5-9.6l5.5,9.6H36.6z"/>
	<polygon class="st1" points="39.5,11.9 45,2.3 50.5,11.9 	"/>
	<rect y="0.2" class="st0" width="2.1" height="15.2"/>
	<polygon class="st0" points="27.9,15.5 25.8,15.5 24.8,3.4 24.7,3.4 20,15.6 18.8,15.6 14.2,3.4 14.1,3.4 13.1,15.5 11,15.5 
		12.4,0.2 15,0.2 19.4,12 19.5,12 23.9,0.2 26.5,0.2 	"/>
	<path class="st0" d="M70.2,13.3c-0.3,0.3-2.1,2.5-6.5,2.5c-4.4,0-7.8-3.1-7.8-7.9C56,3.1,59.4,0,63.7,0c3.9,0,5.6,2.1,6.2,2.6
		L68.4,4c-0.9-1.1-2.3-2.2-4.7-2.2c-3.1,0-5.5,2.3-5.5,6c0,3.8,2.5,6,5.7,6c3.2,0,4.3-1.4,4.3-1.4V9.1H64V7.3h6.2V13.3z"/>
	<rect x="79.5" y="0.2" class="st0" width="2.1" height="15.2"/>
	<path class="st0" d="M104.1,15.5H102L93.3,3.3c0,0,0,2.1,0,4v8.1h-2.1V0.2h2.3l8.6,12c0,0,0-1.9,0-3.9V0.2h2.1V15.5z"/>
	<polygon class="st0" points="122.8,15.5 113.7,15.5 113.7,0.2 122.6,0.2 122.6,2 115.8,2 115.8,6.6 122.2,6.6 122.2,8.3 115.8,8.3 
		115.8,13.6 122.8,13.6 	"/>
	<path class="st0" d="M83.9,25.4c-0.3,0.4-0.9,0.8-1.9,0.8c-1.5,0-2.7-1.1-2.7-2.7c0-1.6,1.2-2.7,2.7-2.7c1,0,1.6,0.4,1.9,0.7
		l-0.3,0.6c-0.2-0.3-0.8-0.6-1.5-0.6c-1.1,0-1.9,0.8-1.9,2c0,1.2,0.8,2,1.9,2c0.7,0,1.2-0.3,1.6-0.6L83.9,25.4z"/>
	<path class="st0" d="M91.7,26.1h-0.8l-0.5-1.4h-2.2l-0.5,1.4h-0.8l2.1-5.2h0.6L91.7,26.1z M90.1,24.1l-0.9-2.3l-0.9,2.3H90.1z"/>
	<path class="st0" d="M99.4,26.1h-0.7l-3-4.2c0,0,0,0.7,0,1.4v2.8H95v-5.2h0.8l3,4.1c0,0,0-0.6,0-1.3v-2.8h0.7V26.1z"/>
	<path class="st0" d="M107.6,26.1h-0.8l-0.5-1.4H104l-0.5,1.4h-0.8l2.1-5.2h0.6L107.6,26.1z M106.1,24.1l-0.9-2.3l-0.9,2.3H106.1z"
		/>
	<path class="st0" d="M114.4,25.4c-0.4,0.3-1,0.7-1.9,0.7h-1.6v-5.2h1.6c0.9,0,1.6,0.3,1.9,0.7c0.4,0.3,0.8,1,0.8,1.9
		C115.2,24.5,114.8,25.1,114.4,25.4 M113.9,22c-0.3-0.3-0.8-0.5-1.4-0.5h-0.8v4h0.8c0.6,0,1.1-0.2,1.4-0.5c0.3-0.3,0.6-0.7,0.6-1.5
		C114.5,22.7,114.2,22.3,113.9,22"/>
	<path class="st0" d="M123,26.1h-0.8l-0.5-1.4h-2.2l-0.5,1.4h-0.8l2.1-5.2h0.6L123,26.1z M121.4,24.1l-0.9-2.3l-0.9,2.3H121.4z"/>
	<polygon class="st2" points="44.3,3.6 43.1,5.6 46.7,11.9 49.1,11.9 	"/>
</g>
</svg>
