<?xml version="1.0" encoding="UTF-8"?>
<svg width="155px" height="36px" viewBox="0 0 155 36" version="1.1" xmlns="http://www.w3.org/2000/svg" xmlns:xlink="http://www.w3.org/1999/xlink">
    <!-- Generator: Sketch 49 (51002) - http://www.bohemiancoding.com/sketch -->
    <title>english-grant-connect-logos_reverse-white-version_vector-(default-for-printing)_381x88 (1)</title>
    <desc>Created with Sketch.</desc>
    <defs></defs>
    <g id="Login" stroke="none" stroke-width="1" fill="none" fill-rule="evenodd">
        <g id="Log-In---Desktop" transform="translate(-24.000000, -19.000000)" fill="#FFFFFE">
            <g id="english-grant-connect-logos_reverse-white-version_vector-(default-for-printing)_381x88-(1)" transform="translate(24.000000, 19.000000)">
                <path d="M69.9428571,15.3822805 C69.6730846,15.6266795 67.9319464,17.4857143 63.8685535,17.4857143 C59.784817,17.4857143 56.5714286,14.8189609 56.5714286,10.7811693 C56.5714286,6.74337765 59.784817,4.11428571 63.8477677,4.11428571 C67.5171159,4.11428571 69.0928527,5.8603361 69.6319554,6.36756414 L68.2636339,7.51343475 C67.4136294,6.61196312 66.0868794,5.67283 63.8477677,5.67283 C60.9041518,5.67283 58.6446965,7.58875772 58.6446965,10.7811693 C58.6446965,13.9735808 60.9872948,15.8895085 63.9724822,15.8895085 C66.9368839,15.8895085 67.9943037,14.7059764 67.9943037,14.7059764 L67.9943037,11.8332868 L64.138326,11.8332868 L64.138326,10.3492642 L69.9428571,10.3492642 L69.9428571,15.3822805" id="Fill-1"></path>
                <path d="M79.6746423,6.13008728 C79.0614943,5.68442811 78.3293457,5.64556729 77.3798735,5.64556729 L75.9754987,5.64556729 L75.9754987,10.1798806 L77.3798735,10.1798806 C78.3293457,10.1798806 79.0614943,10.1410198 79.6746423,9.71520441 C80.2877904,9.26871842 80.5447808,8.72632062 80.5447808,7.91272393 C80.5447808,7.11814424 80.2877904,6.55590262 79.6746423,6.13008728 M83.3142857,17.4857143 L81.0001055,17.4857143 L77.4393738,11.7301791 L75.9754987,11.7301791 L75.9754987,17.4857143 L74.0571429,17.4857143 L74.0571429,4.11428571 L77.9141099,4.11428571 C79.2788179,4.11428571 80.3869575,4.42434543 81.1975957,5.04446486 C82.008656,5.68442811 82.5230589,6.65264125 82.5230589,7.87386311 C82.5230589,10.2187414 80.8612716,11.265503 79.4176518,11.5367019 L83.3142857,17.4857143" id="Fill-2"></path>
                <path d="M92.7620063,12.4426766 L90.4571937,6.45236891 L88.152381,12.4426766 L92.7620063,12.4426766 Z M96.6857143,17.4857143 L94.6279619,17.4857143 L93.2756317,14.0074445 L87.6375365,14.0074445 L86.2852063,17.4857143 L84.3428571,17.4857143 L89.6952889,4.11428571 L91.3137778,4.11428571 L96.6857143,17.4857143 Z" id="Fill-3"></path>
                <path d="M111.085714,17.4857143 L109.254622,17.4857143 L101.583195,6.82710152 C101.583195,6.82710152 101.621848,8.62958199 101.621848,10.3733578 L101.621848,17.4857143 L99.7714286,17.4857143 L99.7714286,4.11428571 L101.737396,4.11428571 L109.273948,14.6174552 C109.273948,14.6174552 109.254622,12.970418 109.254622,11.2067983 L109.254622,4.11428571 L111.085714,4.11428571 L111.085714,17.4857143" id="Fill-4"></path>
                <polyline id="Fill-5" points="123.428571 5.68442811 119.734004 5.68442811 119.734004 17.4857143 117.885907 17.4857143 117.885907 5.68442811 114.171429 5.68442811 114.171429 4.11428571 123.428571 4.11428571 123.428571 5.68442811"></polyline>
                <path d="M67.8857143,34.0848736 C67.0814266,34.9863452 65.6228571,36 63.1728914,36 C59.4139633,36 56.5714286,33.352478 56.5714286,29.3138851 C56.5714286,25.2760935 59.4702156,22.6285714 63.1728914,22.6285714 C65.5853556,22.6285714 67.043925,23.6422262 67.7548579,24.3377616 L66.9880717,25.8025529 C66.4829982,25.1639103 65.0431795,24.2247772 63.2478944,24.2247772 C60.461213,24.2247772 58.4417167,26.234458 58.4417167,29.2770249 C58.4417167,32.3187905 60.4799637,34.3284713 63.2478944,34.3284713 C64.9494258,34.3284713 66.258787,33.6713986 67.1001773,32.7514969 L67.8857143,34.0848736" id="Fill-6"></path>
                <path d="M76.6287717,24.2063471 C73.9809284,24.2063471 71.8022369,26.1030434 71.8022369,29.2770249 C71.8022369,32.4317749 73.9993579,34.3477027 76.6287717,34.3477027 C79.2766151,34.3477027 81.4553066,32.4317749 81.4553066,29.2770249 C81.4553066,26.1030434 79.2766151,24.2063471 76.6287717,24.2063471 M76.6287717,36 C72.9853329,36 69.9428571,33.4646611 69.9428571,29.3138851 C69.9428571,25.1639103 72.9853329,22.6285714 76.6287717,22.6285714 C80.2722106,22.6285714 83.3142857,25.1639103 83.3142857,29.3138851 C83.3142857,33.4646611 80.2722106,36 76.6287717,36" id="Fill-7"></path>
                <path d="M99.7714286,36 L97.9403359,36 L90.2689089,25.3413872 C90.2689089,25.3413872 90.3075621,27.1438677 90.3075621,28.8876435 L90.3075621,36 L88.4571429,36 L88.4571429,22.6285714 L90.4231105,22.6285714 L97.9596625,33.1317409 C97.9596625,33.1317409 97.9403359,31.4847037 97.9403359,29.7210841 L97.9403359,22.6285714 L99.7714286,22.6285714 L99.7714286,36" id="Fill-8"></path>
                <path d="M115.2,36 L113.368974,36 L105.697826,25.3413872 C105.697826,25.3413872 105.736066,27.1438677 105.736066,28.8876435 L105.736066,36 L103.885714,36 L103.885714,22.6285714 L105.852022,22.6285714 L113.3883,33.1317409 C113.3883,33.1317409 113.368974,31.4847037 113.368974,29.7210841 L113.368974,22.6285714 L115.2,22.6285714 L115.2,36" id="Fill-9"></path>
                <polyline id="Fill-10" points="127.542857 36 119.314286 36 119.314286 22.6285714 127.383091 22.6285714 127.383091 24.1987138 121.251498 24.1987138 121.251498 28.1906293 127.04311 28.1906293 127.04311 29.7599449 121.251498 29.7599449 121.251498 34.4108406 127.542857 34.4108406 127.542857 36"></polyline>
                <path d="M142.971429,34.0848736 C142.167169,34.9863452 140.708651,36 138.258373,36 C134.499577,36 131.657143,33.352478 131.657143,29.3138851 C131.657143,25.2760935 134.556227,22.6285714 138.258373,22.6285714 C140.671151,22.6285714 142.12927,23.6422262 142.840577,24.3377616 L142.073818,25.8025529 C141.568762,25.1639103 140.128994,24.2247772 138.333772,24.2247772 C135.54679,24.2247772 133.527764,26.234458 133.527764,29.2770249 C133.527764,32.3187905 135.56554,34.3284713 138.333772,34.3284713 C140.034845,34.3284713 141.344559,33.6713986 142.185919,32.7514969 L142.971429,34.0848736" id="Fill-11"></path>
                <polyline id="Fill-12" points="154.285714 24.1987138 150.59074 24.1987138 150.59074 36 148.743457 36 148.743457 24.1987138 145.028571 24.1987138 145.028571 22.6285714 154.285714 22.6285714 154.285714 24.1987138"></polyline>
                <polyline id="Fill-13" points="13.3714286 26.7428571 26.2281579 4.11428571 39.0857143 26.7428571 13.3714286 26.7428571"></polyline>
                <path d="M36.6610926,27.7370916 L31.3109854,27.7370916 L32.8170752,30.3434209 L7.29726502,30.3434209 L20.0567597,8.26280589 L21.6621612,11.0409225 L24.33742,6.41168482 L20.9193758,0.497527226 C20.5360821,-0.165842409 19.5778478,-0.165842409 19.1945541,0.497527226 L0.134925462,33.4786419 C-0.248368249,34.1416015 0.230543701,34.9714286 0.997541502,34.9714286 L39.1167987,34.9714286 C39.8833862,34.9714286 40.3627085,34.1416015 39.9794148,33.4786419 L36.6610926,27.7370916" id="Fill-14"></path>
            </g>
        </g>
    </g>
</svg>