<svg xmlns="http://www.w3.org/2000/svg" xmlns:xlink="http://www.w3.org/1999/xlink" width="157" height="32" viewBox="0 0 157 32">
  <defs>
    <polygon id="logo-fr-a" points=".021 31.5 .021 .284 35.242 .284 35.242 31.5"/>
    <polygon id="logo-fr-c" points=".021 31.5 .021 .284 35.242 .284 35.242 31.5"/>
  </defs>
  <g fill="none" fill-rule="evenodd">
    <path fill="#806416" fill-rule="nonzero" d="M59.1675373 15.6184889C58.4613896 16.4184889 57.1807965 17.3180445 55.0297782 17.3180445 51.7295187 17.3180445 49.2338331 14.9685334 49.2338331 11.3852444 49.2338331 7.80124445 51.778907 5.45173334 55.0297782 5.45173334 57.1478709 5.45173334 58.428464 6.35128889 59.0526481 6.96853334L58.3794261 8.26844445C57.9359821 7.70168889 56.6718517 6.86826666 55.0956293 6.86826666 52.6489818 6.86826666 50.8759066 8.65173334 50.8759066 11.3518222 50.8759066 14.0519111 52.6654446 15.8346666 55.0956293 15.8346666 56.5895378 15.8346666 57.7391295 15.2515555 58.4778523 14.4352L59.1675373 15.6184889M66.9859507 6.8512C64.6703049 6.8512 62.7658779 8.53511111 62.7658779 11.3521778 62.7658779 14.1514666 64.6871179 15.8517334 66.9859507 15.8517334 69.3008961 15.8517334 71.2056734 14.1514666 71.2056734 11.3521778 71.2056734 8.53511111 69.3008961 6.8512 66.9859507 6.8512M66.9859507 17.3180445C63.8005803 17.3180445 61.1406175 15.0680889 61.1406175 11.3852444 61.1406175 7.70204445 63.8005803 5.45173334 66.9859507 5.45173334 70.170971 5.45173334 72.8309338 7.70204445 72.8309338 11.3852444 72.8309338 15.0680889 70.170971 17.3180445 66.9859507 17.3180445M85.6407184 17.1182222L84.081309 17.1182222 77.5466411 7.95128889C77.5466411 7.95128889 77.5792163 9.50151111 77.5792163 11.0012444L77.5792163 17.1182222 76.0029939 17.1182222 76.0029939 5.61813334 77.6779929 5.61813334 84.0977718 14.6513778C84.0977718 14.6513778 84.081309 13.2348445 84.081309 11.7180445L84.081309 5.61813334 85.6407184 5.61813334 85.6407184 17.1182222M99.1072624 17.1182222L97.5475027 17.1182222 91.013185 7.95128889C91.013185 7.95128889 91.0461106 9.50151111 91.0461106 11.0012444L91.0461106 17.1182222 89.4698881 17.1182222 89.4698881 5.61813334 91.1445369 5.61813334 97.5639655 14.6513778C97.5639655 14.6513778 97.5475027 13.2348445 97.5475027 11.7180445L97.5475027 5.61813334 99.1072624 5.61813334 99.1072624 17.1182222"/>
    <polyline fill="#806416" fill-rule="nonzero" points="109.701 17.118 102.936 17.118 102.936 5.618 109.57 5.618 109.57 6.969 104.529 6.969 104.529 10.402 109.29 10.402 109.29 11.751 104.529 11.751 104.529 15.751 109.701 15.751 109.701 17.118"/>
    <polyline fill="#806416" fill-rule="nonzero" points="121.262 17.118 119.341 17.118 116.467 12.235 113.611 17.118 111.706 17.118 115.45 11.185 111.969 5.618 113.84 5.618 116.467 10.102 119.111 5.618 120.982 5.618 117.502 11.185 121.262 17.118"/>
    <polygon fill="#806416" fill-rule="nonzero" points="123.793 17.118 125.385 17.118 125.385 5.618 123.793 5.618"/>
    <path fill="#806416" fill-rule="nonzero" d="M134.400634 6.8512C132.085338 6.8512 130.180912 8.53511111 130.180912 11.3521778 130.180912 14.1514666 132.101801 15.8517334 134.400634 15.8517334 136.715579 15.8517334 138.620357 14.1514666 138.620357 11.3521778 138.620357 8.53511111 136.715579 6.8512 134.400634 6.8512M134.400634 17.3180445C131.214913 17.3180445 128.555301 15.0680889 128.555301 11.3852444 128.555301 7.70204445 131.214913 5.45173334 134.400634 5.45173334 137.586005 5.45173334 140.245617 7.70204445 140.245617 11.3852444 140.245617 15.0680889 137.586005 17.3180445 134.400634 17.3180445M153.056102 17.1182222L151.496343 17.1182222 144.961325 7.95128889C144.961325 7.95128889 144.993899 9.50151111 144.993899 11.0012444L144.993899 17.1182222 143.417678 17.1182222 143.417678 5.61813334 145.092677 5.61813334 151.512806 14.6513778C151.512806 14.6513778 151.496343 13.2348445 151.496343 11.7180445L151.496343 5.61813334 153.056102 5.61813334 153.056102 17.1182222M55.6210368 31.0545778C54.9148891 31.6376889 53.9789632 31.9541334 52.846535 31.9541334 50.8594439 31.9541334 49.7266654 30.6542222 49.1847951 30.0216889L50.120721 28.9379555C50.6951665 29.7212445 51.7624442 30.5873778 52.9939993 30.5873778 54.2255545 30.5873778 55.2108687 29.8716445 55.2108687 28.6545778 55.2108687 27.4542222 53.946388 26.9877334 53.3719425 26.7544889 52.7806839 26.5212445 51.9925727 26.2040889 51.5655915 25.9879111 51.3193506 25.8716445 50.8429811 25.6209778 50.4324627 25.1708445 50.0222946 24.7377778 49.6940902 24.1041778 49.6940902 23.1712 49.6940902 22.2375111 50.120721 21.4712889 50.728092 20.9546666 51.3519258 20.4213334 52.2384634 20.1041778 53.3386666 20.1041778 55.1940557 20.1041778 56.2777961 21.2540445 56.5898881 21.5875555L55.7523886 22.6876445C55.1940557 22.0874666 54.3730189 21.4545778 53.2567031 21.4545778 52.140037 21.4545778 51.286425 21.9879111 51.286425 23.0545778 51.286425 24.1212445 52.0584238 24.5208889 52.7477584 24.8049778L54.8329255 25.6878222C55.046241 25.7873778 55.7362761 26.1706666 56.1135187 26.6208 56.4746488 27.0712889 56.8032035 27.6874666 56.8032035 28.5543111 56.8032035 29.5541334 56.3597597 30.4373334 55.6210368 31.0545778M68.4956216 27.0545778C68.4956216 28.4874666 68.36462 29.6209778 67.5926213 30.5550222 66.8209728 31.4542222 65.6881943 31.9541334 64.1939354 31.9541334 62.6835641 31.9541334 61.5504353 31.4542222 60.7952496 30.5550222 60.0071384 29.6209778 59.8757865 28.4874666 59.8757865 27.0545778L59.8757865 20.2542222 61.4849345 20.2542222 61.4849345 26.9045334C61.4849345 27.8712889 61.5013973 28.8049778 62.0103419 29.4883555 62.4698984 30.1208889 63.2089715 30.5041778 64.1939354 30.5041778 65.1792496 30.5041778 65.9015097 30.1208889 66.3778792 29.4883555 66.8868239 28.8049778 66.9032866 27.8545778 66.9032866 26.9045334L66.9032866 20.2542222 68.4956216 20.2542222 68.4956216 27.0545778M77.5123145 26.8376889C76.9539815 26.4544 76.2481841 26.4209778 75.5255737 26.4209778L73.8179993 26.4209778 73.8179993 30.4373334 75.5255737 30.4373334C76.2481841 30.4373334 76.9539815 30.4209778 77.5123145 30.0376889 78.0706475 29.6544 78.3337015 29.1544889 78.3337015 28.4216889 78.3337015 27.6874666 78.0706475 27.2209778 77.5123145 26.8376889M76.8390923 21.8545778C76.4285739 21.6209778 76.0184058 21.5377778 75.2793327 21.5377778L73.8179993 21.5377778 73.8179993 25.1882666 75.1479808 25.1882666C75.936092 25.1882666 76.4614995 25.1210666 76.8390923 24.8373334 77.2166853 24.5543111 77.5946283 24.1546666 77.5946283 23.3216 77.5946283 22.5041778 77.233148 22.0711111 76.8390923 21.8545778M78.7603323 31.0040889C78.0541847 31.5708445 77.1511845 31.7543111 75.9031665 31.7543111L72.2253142 31.7543111 72.2253142 20.2545778 75.2793327 20.2545778C76.3466104 20.2545778 77.2660735 20.3374222 77.9722211 20.8049778 78.6619061 21.2540445 79.1873135 21.9374222 79.1873135 23.1377778 79.1873135 24.3544889 78.4153147 25.3543111 77.4632765 25.6544L77.4632765 25.6878222C78.9904608 26.0046222 79.9754247 26.9706666 79.9754247 28.4874666 79.9754247 29.6878222 79.4661297 30.4373334 78.7603323 31.0040889"/>
    <polyline fill="#806416" fill-rule="nonzero" points="91.373 20.255 87.202 31.771 85.79 31.771 81.62 20.255 83.328 20.255 86.513 29.422 89.698 20.255 91.373 20.255"/>
    <polyline fill="#806416" fill-rule="nonzero" points="100.717 31.754 93.953 31.754 93.953 20.255 100.586 20.255 100.586 21.605 95.545 21.605 95.545 25.038 100.307 25.038 100.307 26.388 95.545 26.388 95.545 30.388 100.717 30.388 100.717 31.754"/>
    <path fill="#806416" fill-rule="nonzero" d="M113.624972,31.7543111 L112.065212,31.7543111 L105.530194,22.5873778 C105.530194,22.5873778 105.563469,24.1379555 105.563469,25.6373334 L105.563469,31.7543111 L103.987247,31.7543111 L103.987247,20.2545778 L105.661545,20.2545778 L112.081324,29.2874666 C112.081324,29.2874666 112.065212,27.8712889 112.065212,26.3541334 L112.065212,20.2545778 L113.624972,20.2545778 L113.624972,31.7543111"/>
    <polyline fill="#806416" fill-rule="nonzero" points="124.3 21.605 121.115 21.605 121.115 31.754 119.522 31.754 119.522 21.605 116.321 21.605 116.321 20.255 124.3 20.255 124.3 21.605"/>
    <polygon fill="#806416" fill-rule="nonzero" points="126.996 31.754 128.588 31.754 128.588 20.254 126.996 20.254"/>
    <path fill="#806416" fill-rule="nonzero" d="M137.603518 21.488C135.287872 21.488 133.383446 23.1712 133.383446 25.9879111 133.383446 28.7875555 135.304335 30.4878222 137.603518 30.4878222 139.918113 30.4878222 141.823241 28.7875555 141.823241 25.9879111 141.823241 23.1712 139.918113 21.488 137.603518 21.488M137.603518 31.9541334C134.417798 31.9541334 131.757834 29.7041778 131.757834 26.0209778 131.757834 22.3377778 134.417798 20.0878222 137.603518 20.0878222 140.788538 20.0878222 143.448151 22.3377778 143.448151 26.0209778 143.448151 29.7041778 140.788538 31.9541334 137.603518 31.9541334M156.258286 31.7543111L154.698526 31.7543111 148.163858 22.5873778C148.163858 22.5873778 148.196784 24.1379555 148.196784 25.6373334L148.196784 31.7543111 146.620561 31.7543111 146.620561 20.2545778 148.29521 20.2545778 154.714989 29.2874666C154.714989 29.2874666 154.698526 27.8712889 154.698526 26.3541334L154.698526 20.2545778 156.258286 20.2545778 156.258286 31.7543111"/>
    <mask id="logo-fr-b" fill="#fff">
      <use xlink:href="#logo-fr-a"/>
    </mask>
    <polyline fill="#806416" fill-rule="nonzero" points="12.22 24.067 23.43 4.357 34.641 24.067 12.22 24.067" mask="url(#logo-fr-b)"/>
    <g>
      <mask id="logo-fr-d" fill="#fff">
        <use xlink:href="#logo-fr-c"/>
      </mask>
      <path fill="#806416" fill-rule="nonzero" d="M32.2085293,25.0428445 L27.5078837,25.0428445 L28.8315602,27.3696 L6.41067178,27.3696 L17.6207657,7.65937778 L19.03166,10.1393778 L21.3816325,6.00711111 L18.3787536,0.727822222 C18.0421425,0.135466666 17.2000895,0.135466666 16.8631281,0.727822222 L0.118391818,30.1681778 C-0.218569511,30.7601778 0.202807287,31.5004445 0.876379674,31.5004445 L34.3658523,31.5004445 C35.0394247,31.5004445 35.4604513,30.7601778 35.1238402,30.1681778 L32.2085293,25.0428445" mask="url(#logo-fr-d)"/>
    </g>
  </g>
</svg>
