<svg xmlns="http://www.w3.org/2000/svg" width="137" height="32" viewBox="0 0 137 32">
  <g fill="#806416" fill-rule="evenodd">
    <path d="M62 14.112303C61.7578965 14.3316354 60.1953365 16 56.5487018 16 52.8838102 16 50 13.6067598 50 9.98310062 50 6.35944148 52.8838102 4 56.530048 4 59.8230528 4 61.2371755 5.5669683 61.7209856 6.02217295L60.4930048 7.05051837C59.7301803 6.24150536 58.5395072 5.39869359 56.530048 5.39869359 53.8883413 5.39869359 51.8606251 7.1181159 51.8606251 9.98310062 51.8606251 12.8480853 53.9629568 14.5675076 56.6419712 14.5675076 59.3023317 14.5675076 60.2512982 13.5053635 60.2512982 13.5053635L60.2512982 10.9273087 56.7908054 10.9273087 56.7908054 9.5954935 62 9.5954935 62 14.112303M70.4614578 5.80905268C69.8653417 5.40910215 69.1535306 5.37422706 68.2304326 5.37422706L66.8650681 5.37422706 66.8650681 9.44348256 68.2304326 9.44348256C69.1535306 9.44348256 69.8653417 9.40860747 70.4614578 9.0264655 71.057574 8.62577294 71.3074258 8.13900569 71.3074258 7.40885481 71.3074258 6.69577047 71.057574 6.19119466 70.4614578 5.80905268M74 16L71.7501026 16 68.2882801 10.8347762 66.8650681 10.8347762 66.8650681 16 65 16 65 4 68.7498291 4C70.0766285 4 71.1539864 4.27825872 71.9421069 4.83477616 72.7306377 5.40910215 73.2307517 6.27801138 73.2307517 7.37397972 73.2307517 9.47835766 71.6151251 10.4177591 70.211606 10.6611427L74 16M83.185284 11.4741969L80.9444938 6.0982798 78.7037037 11.4741969 83.185284 11.4741969zM87 16L84.9994074 16 83.684642 12.8784759 78.2031605 12.8784759 76.8883951 16 75 16 80.2037531 4 81.777284 4 87 16zM98 16L96.38161 16 89.6013084 6.43457828C89.6013084 6.43457828 89.6354716 8.05218897 89.6354716 9.617116L89.6354716 16 88 16 88 4 89.7375977 4 96.3986916 13.4259213C96.3986916 13.4259213 96.38161 11.947811 96.38161 10.3650754L96.38161 4 98 4 98 16"/>
    <polyline points="110 5.409 106.408 5.409 106.408 16 104.611 16 104.611 5.409 101 5.409 101 4 110 4 110 5.409"/>
    <path d="M60 30.2812968C59.2891396 31.0903098 58 32 55.8346262 32 52.5123413 32 50 29.6240187 50 25.9996404 50 22.3759813 52.5620592 20 55.8346262 20 57.9668547 20 59.2559944 20.9096902 59.8843441 21.5338887L59.2066291 22.8484449C58.7602257 22.2753041 57.4876587 21.4324924 55.9009168 21.4324924 53.4379408 21.4324924 51.6530324 23.236052 51.6530324 25.9665608 51.6530324 28.6963505 53.4545134 30.4999101 55.9009168 30.4999101 57.4047955 30.4999101 58.5620592 29.9102295 59.3057123 29.0846767L60 30.2812968M69.0001798 21.4159525C66.6239101 21.4159525 64.6686742 23.1181159 64.6686742 25.9665608 64.6686742 28.7977467 66.6404494 30.5171691 69.0001798 30.5171691 71.3764494 30.5171691 73.3316854 28.7977467 73.3316854 25.9665608 73.3316854 23.1181159 71.3764494 21.4159525 69.0001798 21.4159525M69.0001798 32C65.730427 32 63 29.7246959 63 25.9996404 63 22.2753041 65.730427 20 69.0001798 20 72.2699326 20 75 22.2753041 75 25.9996404 75 29.7246959 72.2699326 32 69.0001798 32M88 32L86.38161 32 79.6013084 22.4345783C79.6013084 22.4345783 79.6354716 24.052189 79.6354716 25.617116L79.6354716 32 78 32 78 20 79.7375977 20 86.3986916 29.4259213C86.3986916 29.4259213 86.38161 27.947811 86.38161 26.3650754L86.38161 20 88 20 88 32M102 32L100.381669 32 93.6016136 22.4345783C93.6016136 22.4345783 93.6354121 24.052189 93.6354121 25.617116L93.6354121 32 92 32 92 20 93.737898 20 100.39875 29.4259213C100.39875 29.4259213 100.381669 27.947811 100.381669 26.3650754L100.381669 20 102 20 102 32"/>
    <polyline points="114 32 107 32 107 20 113.864 20 113.864 21.409 108.648 21.409 108.648 24.992 113.575 24.992 113.575 26.4 108.648 26.4 108.648 30.574 114 30.574 114 32"/>
    <path d="M127,30.2812968 C126.289165,31.0903098 125.000071,32 122.834421,32 C119.512253,32 117,29.6240187 117,25.9996404 C117,22.3759813 119.562321,20 122.834421,20 C124.966926,20 126.255668,20.9096902 126.884348,21.5338887 L126.206657,22.8484449 C125.760269,22.2753041 124.487747,21.4324924 122.901061,21.4324924 C120.43782,21.4324924 118.653327,23.236052 118.653327,25.9665608 C118.653327,28.6963505 120.454392,30.4999101 122.901061,30.4999101 C124.404534,30.4999101 125.56211,29.9102295 126.305737,29.0846767 L127,30.2812968"/>
    <polyline points="137 21.409 133.408 21.409 133.408 32 131.612 32 131.612 21.409 128 21.409 128 20 137 20 137 21.409"/>
    <polyline points="13 24 24.5 4 36 24 13 24"/>
    <path d="M32.9009805,25.3803453 L28.0996023,25.3803453 L29.4512214,27.7652217 L6.54882758,27.7652217 L17.9996562,7.56073742 L19.4404011,10.1028049 L21.8412744,5.86690114 L18.7737988,0.455253671 C18.4298172,-0.151751224 17.5698634,-0.151751224 17.2258819,0.455253671 L0.121086953,30.6340514 C-0.222894583,31.2406811 0.206898193,32 0.895229553,32 L35.1048194,32 C35.7927825,32 36.2229435,31.2406811 35.878962,30.6340514 L32.9009805,25.3803453"/>
  </g>
</svg>
